<svg width="14" height="11" viewBox="0 0 14 11" fill="currentColor" xmlns="http://www.w3.org/2000/svg">
<path d="M6.8739 8.25H2.7489V4.8125H1.3739V10.3125C1.3739 10.6928 1.68113 11 2.0614 11H7.5614C7.94167 11 8.2489 10.6928 8.2489 10.3125V4.8125H6.8739V8.25ZM13.6329 3.05508L11.8003 0.305078C11.6714 0.113867 11.4565 0 11.2266 0H2.52117C2.29128 0 2.07644 0.113867 1.94968 0.305078L0.117064 3.05508C-0.188014 3.5127 0.138549 4.125 0.688549 4.125H13.0614C13.6093 4.125 13.9358 3.5127 13.6329 3.05508ZM10.9989 10.6562C10.9989 10.8453 11.1536 11 11.3426 11H12.0301C12.2192 11 12.3739 10.8453 12.3739 10.6562V4.8125H10.9989V10.6562Z" fill="#4B5635"/>
</svg>
