<svg width="24" height="24" viewBox="0 0 24 24" fill="none" xmlns="http://www.w3.org/2000/svg">
<path d="M20.7414 0H3.25864C1.45894 0 0 1.45894 0 3.25864V20.7414C0 22.5411 1.45894 24 3.25864 24H20.7414C22.5411 24 24 22.5411 24 20.7414V3.25864C24 1.45894 22.5411 0 20.7414 0Z" fill="#FF4200"/>
<path fill-rule="evenodd" clip-rule="evenodd" d="M7.61783 5.24077C7.26203 6.27956 7.47005 7.41841 8.14597 8.26088C7.28578 7.61346 6.14389 7.44182 5.11755 7.82737L3.19336 8.54995L4.10916 10.3836C4.55824 11.285 5.40102 11.9062 6.36582 12.0873C5.40989 12.2993 4.58917 12.9445 4.16718 13.8555L3.30371 15.7193L5.24199 16.3835C6.28145 16.7395 7.42109 16.531 8.26371 15.8541C7.61577 16.7144 7.44389 17.8567 7.82957 18.8834L8.55215 20.8075L10.3858 19.8917C11.2865 19.443 11.9075 18.6011 12.0891 17.6372C12.3017 18.592 12.9465 19.4116 13.8567 19.8332L15.7205 20.6967L16.3847 18.7584C16.7403 17.7204 16.5328 16.5825 15.8582 15.7402C16.7181 16.3864 17.859 16.5575 18.8846 16.1722L20.8088 15.4496L19.893 13.616C19.4438 12.7144 18.6007 12.0932 17.6357 11.9122C18.5917 11.7003 19.4126 11.055 19.8347 10.1439L20.6981 8.28008L18.7598 7.61587C17.7221 7.26044 16.5846 7.46767 15.7424 8.1419C16.3882 7.28202 16.5591 6.14139 16.1739 5.11608L15.4513 3.19189L13.6177 4.10769C12.7163 4.55677 12.0951 5.39955 11.914 6.36435C11.702 5.40853 11.0568 4.58791 10.1458 4.16596L8.28203 3.30249L7.61783 5.24077ZM13.8795 12C13.8795 13.1161 12.9747 14.0208 11.8587 14.0208C10.7426 14.0208 9.83789 13.1161 9.83789 12C9.83789 10.884 10.7426 9.97925 11.8587 9.97925C12.9747 9.97925 13.8795 10.884 13.8795 12Z" fill="#F5F6EF"/>
</svg>
